<svg enable-background="new 0 0 321.2 321.2" viewBox="0 0 321.2 321.2" xmlns="http://www.w3.org/2000/svg"><path d="m306.4 313.2-24-223.6c-.4-3.6-3.6-6.4-7.2-6.4h-44.4v-13.6c0-38.4-31.2-69.6-69.6-69.6s-69.6 31.2-69.6 69.6v13.6h-45.6c-3.6 0-6.8 2.8-7.2 6.4l-24 223.6c-.4 2 .4 4 1.6 5.6s3.2 2.4 5.2 2.4h278c2 0 4-.8 5.2-2.4s2-3.6 1.6-5.6zm-82.8-189.6c3.6 0 6.4 2.8 6.4 6.4s-2.8 6.4-6.4 6.4-6.4-2.8-6.4-6.4 2.8-6.4 6.4-6.4zm-117.6-54c0-30.4 24.8-55.2 55.2-55.2s55.2 24.8 55.2 55.2v13.6h-110.4zm-7.2 54c3.6 0 6.4 2.8 6.4 6.4s-2.8 6.4-6.4 6.4-6.4-2.8-6.4-6.4 2.8-6.4 6.4-6.4zm-68.8 182.8 22.4-209.2h39.2v13.2c-8 2.8-13.6 10.4-13.6 19.2 0 11.2 9.2 20.4 20.4 20.4s20.4-9.2 20.4-20.4c0-8.8-5.6-16.4-13.6-19.2v-13.2h110.4v13.2c-8 2.8-13.6 10.4-13.6 19.2 0 11.2 9.2 20.4 20.4 20.4s20.4-9.2 20.4-20.4c0-8.8-5.6-16.4-13.6-19.2v-13.2h40.8l22.4 209.2z"/></svg>